%TF.GenerationSoftware,KiCad,Pcbnew,9.0.6*%
%TF.CreationDate,2026-01-21T21:52:31-06:00*%
%TF.ProjectId,Power Checker V0,506f7765-7220-4436-9865-636b65722056,rev?*%
%TF.SameCoordinates,Original*%
%TF.FileFunction,Legend,Bot*%
%TF.FilePolarity,Positive*%
%FSLAX46Y46*%
G04 Gerber Fmt 4.6, Leading zero omitted, Abs format (unit mm)*
G04 Created by KiCad (PCBNEW 9.0.6) date 2026-01-21 21:52:31*
%MOMM*%
%LPD*%
G01*
G04 APERTURE LIST*
%ADD10C,0.100000*%
G04 APERTURE END LIST*
D10*
X120696115Y-79110514D02*
X119934211Y-79110514D01*
X119934211Y-79110514D02*
X119934211Y-79872419D01*
X119934211Y-79872419D02*
X120696115Y-79872419D01*
X120696115Y-79872419D02*
X120696115Y-79110514D01*
X118219925Y-78872419D02*
X118696115Y-78872419D01*
X118696115Y-78872419D02*
X118743734Y-79348609D01*
X118743734Y-79348609D02*
X118696115Y-79300990D01*
X118696115Y-79300990D02*
X118600877Y-79253371D01*
X118600877Y-79253371D02*
X118362782Y-79253371D01*
X118362782Y-79253371D02*
X118267544Y-79300990D01*
X118267544Y-79300990D02*
X118219925Y-79348609D01*
X118219925Y-79348609D02*
X118172306Y-79443847D01*
X118172306Y-79443847D02*
X118172306Y-79681942D01*
X118172306Y-79681942D02*
X118219925Y-79777180D01*
X118219925Y-79777180D02*
X118267544Y-79824800D01*
X118267544Y-79824800D02*
X118362782Y-79872419D01*
X118362782Y-79872419D02*
X118600877Y-79872419D01*
X118600877Y-79872419D02*
X118696115Y-79824800D01*
X118696115Y-79824800D02*
X118743734Y-79777180D01*
X117553258Y-78872419D02*
X117458020Y-78872419D01*
X117458020Y-78872419D02*
X117362782Y-78920038D01*
X117362782Y-78920038D02*
X117315163Y-78967657D01*
X117315163Y-78967657D02*
X117267544Y-79062895D01*
X117267544Y-79062895D02*
X117219925Y-79253371D01*
X117219925Y-79253371D02*
X117219925Y-79491466D01*
X117219925Y-79491466D02*
X117267544Y-79681942D01*
X117267544Y-79681942D02*
X117315163Y-79777180D01*
X117315163Y-79777180D02*
X117362782Y-79824800D01*
X117362782Y-79824800D02*
X117458020Y-79872419D01*
X117458020Y-79872419D02*
X117553258Y-79872419D01*
X117553258Y-79872419D02*
X117648496Y-79824800D01*
X117648496Y-79824800D02*
X117696115Y-79777180D01*
X117696115Y-79777180D02*
X117743734Y-79681942D01*
X117743734Y-79681942D02*
X117791353Y-79491466D01*
X117791353Y-79491466D02*
X117791353Y-79253371D01*
X117791353Y-79253371D02*
X117743734Y-79062895D01*
X117743734Y-79062895D02*
X117696115Y-78967657D01*
X117696115Y-78967657D02*
X117648496Y-78920038D01*
X117648496Y-78920038D02*
X117553258Y-78872419D01*
X116600877Y-78872419D02*
X116505639Y-78872419D01*
X116505639Y-78872419D02*
X116410401Y-78920038D01*
X116410401Y-78920038D02*
X116362782Y-78967657D01*
X116362782Y-78967657D02*
X116315163Y-79062895D01*
X116315163Y-79062895D02*
X116267544Y-79253371D01*
X116267544Y-79253371D02*
X116267544Y-79491466D01*
X116267544Y-79491466D02*
X116315163Y-79681942D01*
X116315163Y-79681942D02*
X116362782Y-79777180D01*
X116362782Y-79777180D02*
X116410401Y-79824800D01*
X116410401Y-79824800D02*
X116505639Y-79872419D01*
X116505639Y-79872419D02*
X116600877Y-79872419D01*
X116600877Y-79872419D02*
X116696115Y-79824800D01*
X116696115Y-79824800D02*
X116743734Y-79777180D01*
X116743734Y-79777180D02*
X116791353Y-79681942D01*
X116791353Y-79681942D02*
X116838972Y-79491466D01*
X116838972Y-79491466D02*
X116838972Y-79253371D01*
X116838972Y-79253371D02*
X116791353Y-79062895D01*
X116791353Y-79062895D02*
X116743734Y-78967657D01*
X116743734Y-78967657D02*
X116696115Y-78920038D01*
X116696115Y-78920038D02*
X116600877Y-78872419D01*
X115838972Y-79872419D02*
X115838972Y-79205752D01*
X115838972Y-79300990D02*
X115791353Y-79253371D01*
X115791353Y-79253371D02*
X115696115Y-79205752D01*
X115696115Y-79205752D02*
X115553258Y-79205752D01*
X115553258Y-79205752D02*
X115458020Y-79253371D01*
X115458020Y-79253371D02*
X115410401Y-79348609D01*
X115410401Y-79348609D02*
X115410401Y-79872419D01*
X115410401Y-79348609D02*
X115362782Y-79253371D01*
X115362782Y-79253371D02*
X115267544Y-79205752D01*
X115267544Y-79205752D02*
X115124687Y-79205752D01*
X115124687Y-79205752D02*
X115029448Y-79253371D01*
X115029448Y-79253371D02*
X114981829Y-79348609D01*
X114981829Y-79348609D02*
X114981829Y-79872419D01*
X114553258Y-79586704D02*
X114077068Y-79586704D01*
X114648496Y-79872419D02*
X114315163Y-78872419D01*
X114315163Y-78872419D02*
X113981830Y-79872419D01*
X111827693Y-79110514D02*
X111065789Y-79110514D01*
X111065789Y-79110514D02*
X111065789Y-79872419D01*
X111065789Y-79872419D02*
X111827693Y-79872419D01*
X111827693Y-79872419D02*
X111827693Y-79110514D01*
X109303884Y-79872419D02*
X109875312Y-79872419D01*
X109589598Y-79872419D02*
X109589598Y-78872419D01*
X109589598Y-78872419D02*
X109684836Y-79015276D01*
X109684836Y-79015276D02*
X109780074Y-79110514D01*
X109780074Y-79110514D02*
X109875312Y-79158133D01*
X108351503Y-79872419D02*
X108922931Y-79872419D01*
X108637217Y-79872419D02*
X108637217Y-78872419D01*
X108637217Y-78872419D02*
X108732455Y-79015276D01*
X108732455Y-79015276D02*
X108827693Y-79110514D01*
X108827693Y-79110514D02*
X108922931Y-79158133D01*
X107732455Y-78872419D02*
X107637217Y-78872419D01*
X107637217Y-78872419D02*
X107541979Y-78920038D01*
X107541979Y-78920038D02*
X107494360Y-78967657D01*
X107494360Y-78967657D02*
X107446741Y-79062895D01*
X107446741Y-79062895D02*
X107399122Y-79253371D01*
X107399122Y-79253371D02*
X107399122Y-79491466D01*
X107399122Y-79491466D02*
X107446741Y-79681942D01*
X107446741Y-79681942D02*
X107494360Y-79777180D01*
X107494360Y-79777180D02*
X107541979Y-79824800D01*
X107541979Y-79824800D02*
X107637217Y-79872419D01*
X107637217Y-79872419D02*
X107732455Y-79872419D01*
X107732455Y-79872419D02*
X107827693Y-79824800D01*
X107827693Y-79824800D02*
X107875312Y-79777180D01*
X107875312Y-79777180D02*
X107922931Y-79681942D01*
X107922931Y-79681942D02*
X107970550Y-79491466D01*
X107970550Y-79491466D02*
X107970550Y-79253371D01*
X107970550Y-79253371D02*
X107922931Y-79062895D01*
X107922931Y-79062895D02*
X107875312Y-78967657D01*
X107875312Y-78967657D02*
X107827693Y-78920038D01*
X107827693Y-78920038D02*
X107732455Y-78872419D01*
X106780074Y-78872419D02*
X106684836Y-78872419D01*
X106684836Y-78872419D02*
X106589598Y-78920038D01*
X106589598Y-78920038D02*
X106541979Y-78967657D01*
X106541979Y-78967657D02*
X106494360Y-79062895D01*
X106494360Y-79062895D02*
X106446741Y-79253371D01*
X106446741Y-79253371D02*
X106446741Y-79491466D01*
X106446741Y-79491466D02*
X106494360Y-79681942D01*
X106494360Y-79681942D02*
X106541979Y-79777180D01*
X106541979Y-79777180D02*
X106589598Y-79824800D01*
X106589598Y-79824800D02*
X106684836Y-79872419D01*
X106684836Y-79872419D02*
X106780074Y-79872419D01*
X106780074Y-79872419D02*
X106875312Y-79824800D01*
X106875312Y-79824800D02*
X106922931Y-79777180D01*
X106922931Y-79777180D02*
X106970550Y-79681942D01*
X106970550Y-79681942D02*
X107018169Y-79491466D01*
X107018169Y-79491466D02*
X107018169Y-79253371D01*
X107018169Y-79253371D02*
X106970550Y-79062895D01*
X106970550Y-79062895D02*
X106922931Y-78967657D01*
X106922931Y-78967657D02*
X106875312Y-78920038D01*
X106875312Y-78920038D02*
X106780074Y-78872419D01*
X106018169Y-79872419D02*
X106018169Y-79205752D01*
X106018169Y-79300990D02*
X105970550Y-79253371D01*
X105970550Y-79253371D02*
X105875312Y-79205752D01*
X105875312Y-79205752D02*
X105732455Y-79205752D01*
X105732455Y-79205752D02*
X105637217Y-79253371D01*
X105637217Y-79253371D02*
X105589598Y-79348609D01*
X105589598Y-79348609D02*
X105589598Y-79872419D01*
X105589598Y-79348609D02*
X105541979Y-79253371D01*
X105541979Y-79253371D02*
X105446741Y-79205752D01*
X105446741Y-79205752D02*
X105303884Y-79205752D01*
X105303884Y-79205752D02*
X105208645Y-79253371D01*
X105208645Y-79253371D02*
X105161026Y-79348609D01*
X105161026Y-79348609D02*
X105161026Y-79872419D01*
X104732455Y-79586704D02*
X104256265Y-79586704D01*
X104827693Y-79872419D02*
X104494360Y-78872419D01*
X104494360Y-78872419D02*
X104161027Y-79872419D01*
X119696115Y-76872419D02*
X119696115Y-75872419D01*
X119696115Y-75872419D02*
X119362782Y-76586704D01*
X119362782Y-76586704D02*
X119029449Y-75872419D01*
X119029449Y-75872419D02*
X119029449Y-76872419D01*
X118124687Y-76872419D02*
X118124687Y-76348609D01*
X118124687Y-76348609D02*
X118172306Y-76253371D01*
X118172306Y-76253371D02*
X118267544Y-76205752D01*
X118267544Y-76205752D02*
X118458020Y-76205752D01*
X118458020Y-76205752D02*
X118553258Y-76253371D01*
X118124687Y-76824800D02*
X118219925Y-76872419D01*
X118219925Y-76872419D02*
X118458020Y-76872419D01*
X118458020Y-76872419D02*
X118553258Y-76824800D01*
X118553258Y-76824800D02*
X118600877Y-76729561D01*
X118600877Y-76729561D02*
X118600877Y-76634323D01*
X118600877Y-76634323D02*
X118553258Y-76539085D01*
X118553258Y-76539085D02*
X118458020Y-76491466D01*
X118458020Y-76491466D02*
X118219925Y-76491466D01*
X118219925Y-76491466D02*
X118124687Y-76443847D01*
X117743734Y-76872419D02*
X117219925Y-76205752D01*
X117743734Y-76205752D02*
X117219925Y-76872419D01*
X116838972Y-76872419D02*
X116838972Y-76205752D01*
X116838972Y-75872419D02*
X116886591Y-75920038D01*
X116886591Y-75920038D02*
X116838972Y-75967657D01*
X116838972Y-75967657D02*
X116791353Y-75920038D01*
X116791353Y-75920038D02*
X116838972Y-75872419D01*
X116838972Y-75872419D02*
X116838972Y-75967657D01*
X116362782Y-76872419D02*
X116362782Y-76205752D01*
X116362782Y-76300990D02*
X116315163Y-76253371D01*
X116315163Y-76253371D02*
X116219925Y-76205752D01*
X116219925Y-76205752D02*
X116077068Y-76205752D01*
X116077068Y-76205752D02*
X115981830Y-76253371D01*
X115981830Y-76253371D02*
X115934211Y-76348609D01*
X115934211Y-76348609D02*
X115934211Y-76872419D01*
X115934211Y-76348609D02*
X115886592Y-76253371D01*
X115886592Y-76253371D02*
X115791354Y-76205752D01*
X115791354Y-76205752D02*
X115648497Y-76205752D01*
X115648497Y-76205752D02*
X115553258Y-76253371D01*
X115553258Y-76253371D02*
X115505639Y-76348609D01*
X115505639Y-76348609D02*
X115505639Y-76872419D01*
X114600878Y-76205752D02*
X114600878Y-76872419D01*
X115029449Y-76205752D02*
X115029449Y-76729561D01*
X115029449Y-76729561D02*
X114981830Y-76824800D01*
X114981830Y-76824800D02*
X114886592Y-76872419D01*
X114886592Y-76872419D02*
X114743735Y-76872419D01*
X114743735Y-76872419D02*
X114648497Y-76824800D01*
X114648497Y-76824800D02*
X114600878Y-76777180D01*
X114124687Y-76872419D02*
X114124687Y-76205752D01*
X114124687Y-76300990D02*
X114077068Y-76253371D01*
X114077068Y-76253371D02*
X113981830Y-76205752D01*
X113981830Y-76205752D02*
X113838973Y-76205752D01*
X113838973Y-76205752D02*
X113743735Y-76253371D01*
X113743735Y-76253371D02*
X113696116Y-76348609D01*
X113696116Y-76348609D02*
X113696116Y-76872419D01*
X113696116Y-76348609D02*
X113648497Y-76253371D01*
X113648497Y-76253371D02*
X113553259Y-76205752D01*
X113553259Y-76205752D02*
X113410402Y-76205752D01*
X113410402Y-76205752D02*
X113315163Y-76253371D01*
X113315163Y-76253371D02*
X113267544Y-76348609D01*
X113267544Y-76348609D02*
X113267544Y-76872419D01*
X111600878Y-76872419D02*
X111600878Y-76348609D01*
X111600878Y-76348609D02*
X111648497Y-76253371D01*
X111648497Y-76253371D02*
X111743735Y-76205752D01*
X111743735Y-76205752D02*
X111934211Y-76205752D01*
X111934211Y-76205752D02*
X112029449Y-76253371D01*
X111600878Y-76824800D02*
X111696116Y-76872419D01*
X111696116Y-76872419D02*
X111934211Y-76872419D01*
X111934211Y-76872419D02*
X112029449Y-76824800D01*
X112029449Y-76824800D02*
X112077068Y-76729561D01*
X112077068Y-76729561D02*
X112077068Y-76634323D01*
X112077068Y-76634323D02*
X112029449Y-76539085D01*
X112029449Y-76539085D02*
X111934211Y-76491466D01*
X111934211Y-76491466D02*
X111696116Y-76491466D01*
X111696116Y-76491466D02*
X111600878Y-76443847D01*
X111124687Y-76872419D02*
X111124687Y-76205752D01*
X111124687Y-76300990D02*
X111077068Y-76253371D01*
X111077068Y-76253371D02*
X110981830Y-76205752D01*
X110981830Y-76205752D02*
X110838973Y-76205752D01*
X110838973Y-76205752D02*
X110743735Y-76253371D01*
X110743735Y-76253371D02*
X110696116Y-76348609D01*
X110696116Y-76348609D02*
X110696116Y-76872419D01*
X110696116Y-76348609D02*
X110648497Y-76253371D01*
X110648497Y-76253371D02*
X110553259Y-76205752D01*
X110553259Y-76205752D02*
X110410402Y-76205752D01*
X110410402Y-76205752D02*
X110315163Y-76253371D01*
X110315163Y-76253371D02*
X110267544Y-76348609D01*
X110267544Y-76348609D02*
X110267544Y-76872419D01*
X109791354Y-76205752D02*
X109791354Y-77205752D01*
X109791354Y-76253371D02*
X109696116Y-76205752D01*
X109696116Y-76205752D02*
X109505640Y-76205752D01*
X109505640Y-76205752D02*
X109410402Y-76253371D01*
X109410402Y-76253371D02*
X109362783Y-76300990D01*
X109362783Y-76300990D02*
X109315164Y-76396228D01*
X109315164Y-76396228D02*
X109315164Y-76681942D01*
X109315164Y-76681942D02*
X109362783Y-76777180D01*
X109362783Y-76777180D02*
X109410402Y-76824800D01*
X109410402Y-76824800D02*
X109505640Y-76872419D01*
X109505640Y-76872419D02*
X109696116Y-76872419D01*
X109696116Y-76872419D02*
X109791354Y-76824800D01*
X108505640Y-76824800D02*
X108600878Y-76872419D01*
X108600878Y-76872419D02*
X108791354Y-76872419D01*
X108791354Y-76872419D02*
X108886592Y-76824800D01*
X108886592Y-76824800D02*
X108934211Y-76729561D01*
X108934211Y-76729561D02*
X108934211Y-76348609D01*
X108934211Y-76348609D02*
X108886592Y-76253371D01*
X108886592Y-76253371D02*
X108791354Y-76205752D01*
X108791354Y-76205752D02*
X108600878Y-76205752D01*
X108600878Y-76205752D02*
X108505640Y-76253371D01*
X108505640Y-76253371D02*
X108458021Y-76348609D01*
X108458021Y-76348609D02*
X108458021Y-76443847D01*
X108458021Y-76443847D02*
X108934211Y-76539085D01*
X108029449Y-76872419D02*
X108029449Y-76205752D01*
X108029449Y-76396228D02*
X107981830Y-76300990D01*
X107981830Y-76300990D02*
X107934211Y-76253371D01*
X107934211Y-76253371D02*
X107838973Y-76205752D01*
X107838973Y-76205752D02*
X107743735Y-76205752D01*
X106981830Y-76872419D02*
X106981830Y-76348609D01*
X106981830Y-76348609D02*
X107029449Y-76253371D01*
X107029449Y-76253371D02*
X107124687Y-76205752D01*
X107124687Y-76205752D02*
X107315163Y-76205752D01*
X107315163Y-76205752D02*
X107410401Y-76253371D01*
X106981830Y-76824800D02*
X107077068Y-76872419D01*
X107077068Y-76872419D02*
X107315163Y-76872419D01*
X107315163Y-76872419D02*
X107410401Y-76824800D01*
X107410401Y-76824800D02*
X107458020Y-76729561D01*
X107458020Y-76729561D02*
X107458020Y-76634323D01*
X107458020Y-76634323D02*
X107410401Y-76539085D01*
X107410401Y-76539085D02*
X107315163Y-76491466D01*
X107315163Y-76491466D02*
X107077068Y-76491466D01*
X107077068Y-76491466D02*
X106981830Y-76443847D01*
X106077068Y-76205752D02*
X106077068Y-77015276D01*
X106077068Y-77015276D02*
X106124687Y-77110514D01*
X106124687Y-77110514D02*
X106172306Y-77158133D01*
X106172306Y-77158133D02*
X106267544Y-77205752D01*
X106267544Y-77205752D02*
X106410401Y-77205752D01*
X106410401Y-77205752D02*
X106505639Y-77158133D01*
X106077068Y-76824800D02*
X106172306Y-76872419D01*
X106172306Y-76872419D02*
X106362782Y-76872419D01*
X106362782Y-76872419D02*
X106458020Y-76824800D01*
X106458020Y-76824800D02*
X106505639Y-76777180D01*
X106505639Y-76777180D02*
X106553258Y-76681942D01*
X106553258Y-76681942D02*
X106553258Y-76396228D01*
X106553258Y-76396228D02*
X106505639Y-76300990D01*
X106505639Y-76300990D02*
X106458020Y-76253371D01*
X106458020Y-76253371D02*
X106362782Y-76205752D01*
X106362782Y-76205752D02*
X106172306Y-76205752D01*
X106172306Y-76205752D02*
X106077068Y-76253371D01*
X105219925Y-76824800D02*
X105315163Y-76872419D01*
X105315163Y-76872419D02*
X105505639Y-76872419D01*
X105505639Y-76872419D02*
X105600877Y-76824800D01*
X105600877Y-76824800D02*
X105648496Y-76729561D01*
X105648496Y-76729561D02*
X105648496Y-76348609D01*
X105648496Y-76348609D02*
X105600877Y-76253371D01*
X105600877Y-76253371D02*
X105505639Y-76205752D01*
X105505639Y-76205752D02*
X105315163Y-76205752D01*
X105315163Y-76205752D02*
X105219925Y-76253371D01*
X105219925Y-76253371D02*
X105172306Y-76348609D01*
X105172306Y-76348609D02*
X105172306Y-76443847D01*
X105172306Y-76443847D02*
X105648496Y-76539085D01*
X104743734Y-76777180D02*
X104696115Y-76824800D01*
X104696115Y-76824800D02*
X104743734Y-76872419D01*
X104743734Y-76872419D02*
X104791353Y-76824800D01*
X104791353Y-76824800D02*
X104743734Y-76777180D01*
X104743734Y-76777180D02*
X104743734Y-76872419D01*
X104743734Y-76253371D02*
X104696115Y-76300990D01*
X104696115Y-76300990D02*
X104743734Y-76348609D01*
X104743734Y-76348609D02*
X104791353Y-76300990D01*
X104791353Y-76300990D02*
X104743734Y-76253371D01*
X104743734Y-76253371D02*
X104743734Y-76348609D01*
M02*
